<svg width="400" height="400" viewBox="0 0 400 400" fill="none" xmlns="http://www.w3.org/2000/svg">
<g filter="url(#filter0_dd_102_11)">
<path d="M276.5 220.5L224.088 115.962L214.278 107.983L205.72 104.413L196.328 101.053H181.509L172.743 115.962L260.405 277.862V229.5L276.5 220.5Z" fill="url(#paint0_linear_102_11)"/>
<path d="M128.5 187L175.437 283.929L185.256 291.897L193.818 295.457L203.214 298.806L218.033 298.788L226.782 283.869L150.5 136.5L138.933 158.5L128.5 187Z" fill="url(#paint1_linear_102_11)"/>
<path d="M256.01 289.925L335.335 119.322L284.199 119.382L201.318 283.899C192.699 294.258 186.826 292.829 175.437 283.929C194.661 331.255 230.601 342.935 256.01 289.925Z" fill="white"/>
<path d="M143.522 109.873L64 280.382H115.136L198.206 115.962C206.838 105.613 212.709 107.049 224.088 115.962C204.919 68.614 168.992 56.8916 143.522 109.873Z" fill="white"/>
</g>
<defs>
<filter id="filter0_dd_102_11" x="-4" y="0" width="408" height="408" filterUnits="userSpaceOnUse" color-interpolation-filters="sRGB">
<feFlood flood-opacity="0" result="BackgroundImageFix"/>
<feColorMatrix in="SourceAlpha" type="matrix" values="0 0 0 0 0 0 0 0 0 0 0 0 0 0 0 0 0 0 127 0" result="hardAlpha"/>
<feOffset dy="4"/>
<feGaussianBlur stdDeviation="2"/>
<feComposite in2="hardAlpha" operator="out"/>
<feColorMatrix type="matrix" values="0 0 0 0 0 0 0 0 0 0 0 0 0 0 0 0 0 0 0.25 0"/>
<feBlend mode="normal" in2="BackgroundImageFix" result="effect1_dropShadow_102_11"/>
<feColorMatrix in="SourceAlpha" type="matrix" values="0 0 0 0 0 0 0 0 0 0 0 0 0 0 0 0 0 0 127 0" result="hardAlpha"/>
<feOffset dy="4"/>
<feGaussianBlur stdDeviation="2"/>
<feComposite in2="hardAlpha" operator="out"/>
<feColorMatrix type="matrix" values="0 0 0 0 0 0 0 0 0 0 0 0 0 0 0 0 0 0 0.25 0"/>
<feBlend mode="normal" in2="effect1_dropShadow_102_11" result="effect2_dropShadow_102_11"/>
<feBlend mode="normal" in="SourceGraphic" in2="effect2_dropShadow_102_11" result="shape"/>
</filter>
<linearGradient id="paint0_linear_102_11" x1="208.642" y1="117.432" x2="268.935" y2="247.346" gradientUnits="userSpaceOnUse">
<stop stop-color="white"/>
<stop offset="1" stop-color="#02021C"/>
</linearGradient>
<linearGradient id="paint1_linear_102_11" x1="284.047" y1="305.739" x2="223.467" y2="145.091" gradientUnits="userSpaceOnUse">
<stop stop-color="white"/>
<stop offset="1" stop-color="#02021C"/>
</linearGradient>
</defs>
</svg>
