<svg width="272" height="250" viewBox="0 0 272 250" fill="none" xmlns="http://www.w3.org/2000/svg">
<path d="M252.968 202.862L160.088 40.9622L150.278 32.9827L141.72 29.4129L132.328 26.0531H117.509L108.743 40.9622L196.405 202.862H252.968Z" fill="url(#paint0_linear_102_6)"/>
<path d="M18.3702 47.1378L111.437 208.929L121.256 216.897L129.818 220.457L139.214 223.806L154.033 223.788L162.782 208.869L74.9331 47.0717L18.3702 47.1378Z" fill="url(#paint1_linear_102_6)"/>
<path d="M192.01 214.925L271.335 44.3221L220.199 44.3819L137.318 208.899C128.699 219.258 122.826 217.829 111.437 208.929C130.661 256.255 166.601 267.935 192.01 214.925Z" fill="white"/>
<path d="M79.522 34.8726L0 205.382H51.1362L134.206 40.9623C142.838 30.6135 148.709 32.0491 160.088 40.9623C140.919 -6.38596 104.992 -18.1084 79.522 34.8726Z" fill="white"/>
<defs>
<linearGradient id="paint0_linear_102_6" x1="144.642" y1="42.4321" x2="204.935" y2="172.346" gradientUnits="userSpaceOnUse">
<stop stop-color="white"/>
<stop offset="1" stop-color="#02021C"/>
</linearGradient>
<linearGradient id="paint1_linear_102_6" x1="208.583" y1="230.752" x2="156.881" y2="63.2317" gradientUnits="userSpaceOnUse">
<stop stop-color="white"/>
<stop offset="1" stop-color="#02021C"/>
</linearGradient>
</defs>
</svg>
